<?xml version="1.0" encoding="UTF-8"?>
<svg xmlns="http://www.w3.org/2000/svg" xmlns:xlink="http://www.w3.org/1999/xlink" width="0" height="0">
<symbol id="icon-brush" width="22" height="23" viewBox="0 0 22 23" fill="none"><path d="M1 21C3 21 5.60801 21.3417 6.97485 19.9749C8.34168 18.608 8.34168 16.392 6.97485 15.0251C5.60801 13.6583 3.39194 13.6583 2.0251 15.0251C0.658265 16.392 2.0251 19 1 21Z" stroke-width="2" stroke-linecap="round" stroke-linejoin="round"/><path d="M6.99995 15C6.50853 14.5086 6.26283 14.2629 6.12391 14.0056C5.79079 13.3885 5.80514 12.6421 6.16173 12.0384C6.31043 11.7866 6.5654 11.5505 7.07534 11.0783L16.9434 1.94124C17.8126 1.13645 19.1624 1.1624 19.9999 2C20.8375 2.83759 20.8635 4.18737 20.0587 5.05654L10.9216 14.9246C10.4494 15.4345 10.2134 15.6895 9.96157 15.8382C9.35781 16.1948 8.6114 16.2091 7.99438 15.876C7.73707 15.7371 7.49136 15.4914 6.99995 15Z" stroke-width="2" stroke-linecap="round" stroke-linejoin="round"/></symbol><symbol id="icon-chat" width="23" height="22" viewBox="0 0 23 22" fill="none"><path d="M5.09436 10.2288C5.03221 9.82823 4.99996 9.41786 4.99996 9C4.99996 4.58172 8.60525 1 13.0526 1C17.4999 1 21.1052 4.58172 21.1052 9C21.1052 9.99807 20.9213 10.9535 20.5852 11.8345C20.5154 12.0175 20.4804 12.109 20.4646 12.1804C20.4489 12.2512 20.4428 12.301 20.4411 12.3735C20.4394 12.4466 20.4493 12.5272 20.4692 12.6883L20.8717 15.9585C20.9153 16.3125 20.9371 16.4895 20.8782 16.6182C20.8266 16.731 20.735 16.8205 20.6211 16.8695C20.4911 16.9254 20.3146 16.8995 19.9617 16.8478L16.7765 16.3809C16.6101 16.3565 16.527 16.3443 16.4512 16.3448C16.3763 16.3452 16.3245 16.3507 16.2511 16.3661C16.177 16.3817 16.0823 16.4172 15.893 16.4881C15.0097 16.819 14.0524 17 13.0526 17C12.6344 17 12.2237 16.9683 11.8227 16.9073M6.63158 21C9.59648 21 12 18.5376 12 15.5C12 12.4624 9.59648 10 6.63158 10C3.66668 10 1.26316 12.4624 1.26316 15.5C1.26316 16.1106 1.36028 16.6979 1.53955 17.2467C1.61533 17.4787 1.65322 17.5947 1.66566 17.6739C1.67864 17.7567 1.68091 17.8031 1.67608 17.8867C1.67145 17.9668 1.65141 18.0573 1.61134 18.2383L1 21L3.9948 20.591C4.15827 20.5687 4.24 20.5575 4.31137 20.558C4.38652 20.5585 4.42641 20.5626 4.50011 20.5773C4.5701 20.5912 4.67416 20.6279 4.88227 20.7014C5.43059 20.8949 6.01911 21 6.63158 21Z" stroke-width="2" stroke-linecap="round" stroke-linejoin="round"/></symbol><symbol id="icon-close" width="28" height="28" viewBox="0 0 28 28" fill="none"><path d="M21 7L7 21" stroke-width="2" stroke-linecap="round" stroke-linejoin="round"/><path d="M7 7L21 21" stroke-width="2" stroke-linecap="round" stroke-linejoin="round"/></symbol><symbol id="icon-down" width="20" height="20" viewBox="0 0 20 20" fill="none"><path d="M15 7.5L10 12.5L5 7.5" stroke-width="2"/></symbol><symbol id="icon-hourglass" width="16" height="22" viewBox="0 0 16 22" fill="none"><path d="M14.1626 1H1.83744C1.37494 1 1 1.37494 1 1.83744C1 4.50268 2.05876 7.05876 3.94337 8.94337L5.16256 10.1626C5.28363 10.2836 5.34417 10.3442 5.3875 10.4023C5.65188 10.7569 5.65188 11.2431 5.3875 11.5977C5.34417 11.6558 5.28363 11.7164 5.16256 11.8374L3.94337 13.0566C2.05876 14.9412 1 17.4973 1 20.1626C1 20.6251 1.37494 21 1.83744 21H14.1626C14.6251 21 15 20.6251 15 20.1626C15 17.4973 13.9412 14.9412 12.0566 13.0566L10.8374 11.8374C10.7164 11.7164 10.6558 11.6558 10.6125 11.5977C10.3481 11.2431 10.3481 10.7569 10.6125 10.4023C10.6558 10.3442 10.7164 10.2836 10.8374 10.1626L12.0566 8.94337C13.9412 7.05876 15 4.50268 15 1.83744C15 1.37494 14.6251 1 14.1626 1Z" stroke-width="2" stroke-linecap="round" stroke-linejoin="round"/></symbol><symbol id="icon-left" width="32" height="32" viewBox="0 0 32 32" fill="none"><path d="M26.6667 16H5.33342" stroke-width="2" stroke-linecap="round" stroke-linejoin="round"/><path d="M13.3333 24L5.33325 16L13.3333 8" stroke-width="2" stroke-linecap="round" stroke-linejoin="round"/></symbol><symbol id="icon-menu" width="24" height="12" viewBox="0 0 24 12" fill="none"><path d="M1.5 1.91666H22.5M1.5 10.0833H22.5" stroke-width="2" stroke-linecap="round" stroke-linejoin="round"/></symbol><symbol id="icon-right" width="32" height="32" viewBox="0 0 32 32" fill="none"><path d="M5.33325 16H26.6666" stroke-width="2" stroke-linecap="round" stroke-linejoin="round"/><path d="M18.6667 8L26.6667 16L18.6667 24" stroke-width="2" stroke-linecap="round" stroke-linejoin="round"/></symbol><symbol id="icon-up" width="20" height="20" viewBox="0 0 20 20" fill="none"><path d="M15 12.5L10 7.5L5 12.5" stroke-width="2"/></symbol><symbol id="icon-user" width="24" height="24" viewBox="0 0 24 24" fill="none"><path d="M20 21C20 19.6044 20 18.9067 19.8278 18.3389C19.44 17.0605 18.4395 16.06 17.1611 15.6722C16.5933 15.5 15.8956 15.5 14.5 15.5H9.5C8.10444 15.5 7.40665 15.5 6.83886 15.6722C5.56045 16.06 4.56004 17.0605 4.17224 18.3389C4 18.9067 4 19.6044 4 21" stroke-width="2" stroke-linecap="round" stroke-linejoin="round"/><path d="M12 12C14.4853 12 16.5 9.98528 16.5 7.5C16.5 5.01472 14.4853 3 12 3C9.51472 3 7.5 5.01472 7.5 7.5C7.5 9.98528 9.51472 12 12 12Z" stroke-width="2" stroke-linecap="round" stroke-linejoin="round"/></symbol></svg>
