<svg width="22" height="23" viewBox="0 0 22 23" fill="none" xmlns="http://www.w3.org/2000/svg">
<path d="M1 21C3 21 5.60801 21.3417 6.97485 19.9749C8.34168 18.608 8.34168 16.392 6.97485 15.0251C5.60801 13.6583 3.39194 13.6583 2.0251 15.0251C0.658265 16.392 2.0251 19 1 21Z" stroke="#FAFAFA" stroke-width="2" stroke-linecap="round" stroke-linejoin="round"/>
<path d="M6.99995 15C6.50853 14.5086 6.26283 14.2629 6.12391 14.0056C5.79079 13.3885 5.80514 12.6421 6.16173 12.0384C6.31043 11.7866 6.5654 11.5505 7.07534 11.0783L16.9434 1.94124C17.8126 1.13645 19.1624 1.1624 19.9999 2C20.8375 2.83759 20.8635 4.18737 20.0587 5.05654L10.9216 14.9246C10.4494 15.4345 10.2134 15.6895 9.96157 15.8382C9.35781 16.1948 8.6114 16.2091 7.99438 15.876C7.73707 15.7371 7.49136 15.4914 6.99995 15Z" stroke="#FAFAFA" stroke-width="2" stroke-linecap="round" stroke-linejoin="round"/>
</svg>
