<svg width="16" height="22" viewBox="0 0 16 22" fill="none" xmlns="http://www.w3.org/2000/svg">
<path d="M14.1626 1H1.83744C1.37494 1 1 1.37494 1 1.83744C1 4.50268 2.05876 7.05876 3.94337 8.94337L5.16256 10.1626C5.28363 10.2836 5.34417 10.3442 5.3875 10.4023C5.65188 10.7569 5.65188 11.2431 5.3875 11.5977C5.34417 11.6558 5.28363 11.7164 5.16256 11.8374L3.94337 13.0566C2.05876 14.9412 1 17.4973 1 20.1626C1 20.6251 1.37494 21 1.83744 21H14.1626C14.6251 21 15 20.6251 15 20.1626C15 17.4973 13.9412 14.9412 12.0566 13.0566L10.8374 11.8374C10.7164 11.7164 10.6558 11.6558 10.6125 11.5977C10.3481 11.2431 10.3481 10.7569 10.6125 10.4023C10.6558 10.3442 10.7164 10.2836 10.8374 10.1626L12.0566 8.94337C13.9412 7.05876 15 4.50268 15 1.83744C15 1.37494 14.6251 1 14.1626 1Z" stroke="#FAFAFA" stroke-width="2" stroke-linecap="round" stroke-linejoin="round"/>
</svg>
